<svg viewBox="0 0 24 24" fill="none" xmlns="http://www.w3.org/2000/svg">
    <defs>
        <linearGradient id="favicon-gradient" x1="0%" y1="0%" x2="100%" y2="100%">
            <stop offset="0%" style="stop-color: #FF8A00;"></stop>
            <stop offset="100%" style="stop-color: #E52E71;"></stop>
        </linearGradient>
    </defs>
    <path d="M14 20.5V16.5C14 15.3954 13.1046 14.5 12 14.5H10.5M3.5 10H7.5C8.60457 10 9.5 9.10457 9.5 8V3.5" stroke="url(#favicon-gradient)" stroke-width="2" stroke-linecap="round" stroke-linejoin="round"></path>
    <path d="M3.5 14H7.5C8.60457 14 9.5 14.8954 9.5 16V20.5" stroke="url(#favicon-gradient)" stroke-width="2" stroke-linecap="round" stroke-linejoin="round"></path>
    <path d="M14 3.5V7.5C14 8.60457 14.8954 9.5 16 9.5H20.5" stroke="url(#favicon-gradient)" stroke-width="2" stroke-linecap="round" stroke-linejoin="round"></path>
    <path d="M20.5 14H16.5C15.3954 14 14.5 14.8954 14.5 16V20.5" stroke="url(#favicon-gradient)" stroke-width="2" stroke-linecap="round" stroke-linejoin="round"></path>
    
    <rect x="10" y="10" width="4" height="4" rx="0.5" stroke="url(#favicon-gradient)" stroke-width="1.5"></rect>
    <path d="M12 10V8" stroke="url(#favicon-gradient)" stroke-width="1.5" stroke-linecap="round"></path>
    <path d="M12 14V16" stroke="url(#favicon-gradient)" stroke-width="1.5" stroke-linecap="round"></path>
    <path d="M10 12H8" stroke="url(#favicon-gradient)" stroke-width="1.5" stroke-linecap="round"></path>
    <path d="M14 12H16" stroke="url(#favicon-gradient)" stroke-width="1.5" stroke-linecap="round"></path>
</svg> 